<svg width="300" height="185" viewBox="0 0 300 185" fill="none" xmlns="http://www.w3.org/2000/svg">
<path fill-rule="evenodd" clip-rule="evenodd" d="M389.48 388.574C354.704 443.827 302.519 484.127 243.988 501.13C187.556 517.524 130.01 499.624 74.3801 480.111C18.1519 460.389 -44.9932 443.47 -77.3115 388.434C-109.201 334.129 -87.6181 263.822 -90.7104 198.975C-94.0457 129.032 -136.285 47.8764 -96.1169 -5.91788C-55.4958 -60.3184 24.2928 -29.373 87.1134 -39.1706C136.097 -46.8102 181.775 -62.5042 230.982 -56.9329C292.665 -49.9489 364.829 -54.9389 405.9 -3.07634C447.419 49.3529 436.864 129.433 433.933 199.345C431.134 266.118 423.902 333.885 389.48 388.574Z" fill="#FFCB3C" stroke="black"/>
</svg>
