<svg width="20" height="21" viewBox="0 0 20 21" fill="none" xmlns="http://www.w3.org/2000/svg">
<path d="M5.48638 5.07041C5.48638 2.68434 7.42067 0.750039 9.80672 0.750039C10.9557 0.745169 12.0593 1.1982 12.8735 2.00896C13.6877 2.81971 14.1454 3.9214 14.1454 5.07041M6.84107 9.57382H6.88684M12.6717 9.57382H12.7175M5.62368 19.972H13.9715C17.0378 19.972 19.3902 18.8644 18.7221 14.4068L17.944 8.36559C17.5321 6.14133 16.1134 5.29007 14.8685 5.29007H4.69004C3.42688 5.29007 2.0905 6.20541 1.61452 8.36559L0.836492 14.4068C0.268992 18.361 2.55732 19.972 5.62368 19.972Z" stroke="#8F959E" stroke-width="1.5" stroke-linecap="round" stroke-linejoin="round"/>
</svg>
