<svg width="9" height="8" viewBox="0 0 9 8" fill="none" xmlns="http://www.w3.org/2000/svg">
<path d="M3.1549 0.690983C3.45425 -0.230328 4.75766 -0.230329 5.05701 0.690982L5.34078 1.56434C5.47466 1.97636 5.85861 2.25532 6.29184 2.25532H7.21014C8.17887 2.25532 8.58164 3.49494 7.79793 4.06434L7.05501 4.6041C6.70452 4.85875 6.55786 5.31011 6.69173 5.72214L6.9755 6.59549C7.27486 7.5168 6.22038 8.28293 5.43666 7.71352L4.69374 7.17376C4.34326 6.91912 3.86866 6.91912 3.51817 7.17376L2.77525 7.71352C1.99154 8.28293 0.937057 7.5168 1.23641 6.59549L1.52018 5.72214C1.65405 5.31011 1.5074 4.85875 1.15691 4.6041L0.413988 4.06434C-0.369725 3.49494 0.0330496 2.25532 1.00177 2.25532H1.92007C2.3533 2.25532 2.73726 1.97636 2.87113 1.56434L3.1549 0.690983Z" fill="#FF981F"/>
</svg>
